<?xml version="1.0" encoding="UTF-8"?><svg id="a" xmlns="http://www.w3.org/2000/svg" xmlns:xlink="http://www.w3.org/1999/xlink" viewBox="0 0 61.55 65.3"><defs><style>.f{clip-path:url(#d);}.g{clip-path:url(#e);}.h{fill:none;}.i{fill:#008037;fill-rule:evenodd;}</style><clipPath id="b"><rect class="h" x="-664.94" y="-6.77" width="596" height="849.71"/></clipPath><clipPath id="c"><rect class="h" x="-664.94" y="-6.77" width="596" height="842.96"/></clipPath><clipPath id="d"><rect class="h" width="61.55" height="65.3"/></clipPath><clipPath id="e"><rect class="h" x="2.26" y="8.45" width="59.29" height="56.85"/></clipPath></defs><g class="f"><path class="i" d="m20.47,26.33c3.18,11.94-15,14.74-16.24,24.22C0,42.66,2.47,33.53,5.65,29.67c3.88-4.91,8.12-5.97,12.35-5.62-5.82,2.98-9.18,5.62-12.35,13.69,2.82-6.67,10.41-11.41,14.29-12.81,2.82-1.23,10.77-3.16,12.18-.88,1.41,2.11-.71,3.69-2.65,2.98-4.06-1.93-6.88-1.4-9-.7m22.41-.18c-.35,2.11-1.41,4.74-5.12,7.37-1.59,1.23-1.24,3.86,1.41,3.69,2.47,0,4.76-7.72,5.29-10.88.71-4.04.18-12.99-4.06-18.61,5.47,6.67,6,10.88,5.65,17.38,2.65-3.51,3.71-7.55,1.41-13.52C45.53,7.02,39,.18,29.82,0c7.77,5.79,1.06,22.82,13.06,26.15Zm-10.94,19.31c-1.76-1.4-3.53-3.51-4.06-8.07-.18-1.93-2.65-2.98-3.88-.7-1.06,2.28,4.41,8.07,6.88,10.01,3.18,2.63,11.29,6.85,18.35,5.97-8.65,1.23-12.53-.35-18-3.86,1.76,3.86,4.77,6.85,10.94,7.9,4.94.7,14.12-1.58,18.88-9.3-8.82,3.69-20.47-10.53-29.12-1.93Z"/></g><g class="g"><path class="i" d="m31.59,19.84c-8.82,8.6-20.3-5.62-29.3-1.93,4.77-7.72,13.94-10.01,19.06-9.3,6.18,1.05,9.18,4.04,10.94,7.9-5.47-3.51-9.35-5.09-18-3.86,7.06-.88,15.18,3.34,18.35,5.97,2.47,1.93,7.94,7.72,6.71,10.01-1.06,2.28-3.53,1.23-3.71-.7-.53-4.56-2.29-6.67-4.06-8.07m11.47,19.13c-2.12.7-4.94,1.23-9-.7-1.94-.7-4.06.88-2.65,2.98,1.41,2.28,9.18.35,12.18-.88,3.88-1.4,11.47-6.14,14.29-12.81-3.18,8.07-6.53,10.71-12.35,13.69,4.24.35,8.47-.7,12.35-5.62,3.18-3.86,5.65-12.99,1.41-20.89-1.24,9.48-19.41,12.29-16.24,24.22Zm-22.41.18c.35-2.11,1.41-4.74,4.94-7.37,1.76-1.23,1.41-3.86-1.24-3.69-2.65,0-4.77,7.72-5.29,10.88-.71,4.04-.35,12.99,4.06,18.61-5.47-6.67-6-10.88-5.82-17.38-2.47,3.51-3.53,7.55-1.24,13.52,1.94,4.56,8.47,11.41,17.65,11.59-7.77-5.79-1.24-22.82-13.06-26.15Z"/></g></svg>